:SAMPLES-PER-SECOND 24
:FULLY-SPECIFIED
:DEGREES
356
root  14.3344 39.6352 35.2371 -174.04 39.1189 149.954
RightUpLeg  -40.3507 -1.25523 -28.1746
RightLeg  24.2344 -2.01252 -1.20674
RightFoot  -7.04882 -0.111096 1.69111
RightToes  -2.08645e-008 3.77894e-005 6.81332e-007
Spine  38.0164 -5.43277 19.232
Spine1  -8.07804 4.19366 -28.4826
HEad  -49.4045 48.5197 -42.8776
LeftShoulder1  8.9006 -14.6304 -42.6949
LeftArm  11.2255 1.01797 -25.76
LeftForeArm  158.663 -74.173 -144.305
LeftHand  -0.712132 -1.23379 12.6287
RightShoulder  3.21753 6.96171 24.642
RightArm  18.836 19.4211 60.1184
RightForeArm  28.7365 56.8145 14.7236
RightHand  -3.07316 3.04602 -40.5632
LeftUpLeg  -49.3291 -21.7046 13.0343
LeftLeg  45.4157 3.18216 3.85032
LeftFoot  -10.389 0.11642 -6.45774
LeftToes  1.24767e-006 1.47042e-008 1.32732e-009
357
root  15.4912 39.9574 36.4801 -169.501 30.2687 148.84
RightUpLeg  -40.2533 -8.094 -26.9564
RightLeg  22.4302 -4.28673 -2.15754
RightFoot  -6.07552 -0.107265 1.42723
RightToes  -2.08645e-008 3.77894e-005 6.81332e-007
Spine  38.5937 -4.9555 19.1903
Spine1  -9.01059 4.74369 -28.1746
HEad  -49.0742 48.3394 -43.824
LeftShoulder1  8.77916 -14.562 -42.2413
LeftArm  13.3744 0.483095 -25.9935
LeftForeArm  164.904 -72.2933 -149.087
LeftHand  -0.652074 -1.69047 10.8659
RightShoulder  3.27686 6.93442 25.3232
RightArm  19.8441 18.2088 58.2156
RightForeArm  30.8213 56.7105 14.4828
RightHand  -2.48523 7.76913 -22.5946
LeftUpLeg  -52.3639 -16.1715 12.3172
LeftLeg  58.7191 2.01835 4.21635
LeftFoot  -10.071 0.12217 -5.58515
LeftToes  1.24767e-006 1.47042e-008 1.32732e-009
358
root  16.6484 40.0972 37.3397 -164.51 21.7502 148.022
RightUpLeg  -41.2144 -17.4238 -23.6182
RightLeg  21.3077 -4.34758 -2.08072
RightFoot  -6.68178 -0.107837 1.53496
RightToes  -2.08645e-008 3.77894e-005 6.81332e-007
Spine  37.5812 -4.8943 20.441
Spine1  -9.29896 4.94724 -28.0687
HEad  -49.3936 49.1671 -44.9319
LeftShoulder1  8.61673 -14.4543 -41.6707
LeftArm  14.4012 0.679545 -25.9094
LeftForeArm  167.977 -70.5882 -152.283
LeftHand  -0.560563 -1.75182 9.29195
RightShoulder  3.27597 6.93218 25.3213
RightArm  20.8485 17.236 55.7074
RightForeArm  30.291 54.9113 13.4744
RightHand  -1.83794 8.79579 -15.3027
LeftUpLeg  -54.2106 -9.01834 13.3001
LeftLeg  70.8134 1.08342 4.41965
LeftFoot  -9.97751 0.12984 -5.89001
LeftToes  1.24767e-006 1.47042e-008 1.32732e-009
359
root  17.6764 40.1627 37.8598 -160.076 14.1491 146.869
RightUpLeg  -42.6474 -25.7841 -20.2944
RightLeg  20.5348 -3.98192 -1.86082
RightFoot  -8.04063 -0.117065 2.20224
RightToes  -2.08645e-008 3.77894e-005 6.81332e-007
Spine  36.2162 -5.02462 21.711
Spine1  -9.57015 4.6967 -27.7733
HEad  -49.564 50.462 -45.6701
LeftShoulder1  8.54085 -14.3884 -41.4392
LeftArm  14.268 1.83675 -25.5715
LeftForeArm  169.73 -69.7209 -153.733
LeftHand  -0.543669 -1.96964 8.76733
RightShoulder  3.27884 6.95256 25.2858
RightArm  22.9522 17.5215 52.6645
RightForeArm  28.5815 50.5723 11.4378
RightHand  -1.54624 10.2491 -11.7979
LeftUpLeg  -54.086 -1.44704 15.6581
LeftLeg  81.3927 0.0191308 2.54402
LeftFoot  -9.49732 0.165706 -6.7887
LeftToes  1.24767e-006 1.47042e-008 1.32732e-009
360
root  18.5976 40.2548 38.1043 -156.052 7.96915 145.021
RightUpLeg  -44.0502 -32.5738 -17.645
RightLeg  19.2387 -4.20336 -1.84979
RightFoot  -9.87378 -0.124403 4.71621
RightToes  -2.08645e-008 3.77894e-005 6.81332e-007
Spine  35.2573 -5.20482 22.2374
Spine1  -10.3222 4.26347 -28.3363
HEad  -49.4476 51.4358 -46.0736
LeftShoulder1  8.31942 -14.2126 -40.7101
LeftArm  14.3707 3.87073 -26.1031
LeftForeArm  171.027 -69.0902 -154.714
LeftHand  -0.528623 -2.19851 8.28552
RightShoulder  3.26981 6.93671 25.245
RightArm  26.5476 18.1971 49.0452
RightForeArm  24.7552 46.0574 9.85928
RightHand  -1.64913 9.3336 -13.3149
LeftUpLeg  -51.6835 5.84419 18.7989
LeftLeg  90.1971 -0.370321 2.1073
LeftFoot  -9.95387 0.154885 -7.90408
LeftToes  1.24767e-006 1.47042e-008 1.32732e-009
361
root  19.4169 40.3096 38.1309 -151.416 3.20627 143.043
RightUpLeg  -46.3085 -37.4879 -14.9198
RightLeg  17.285 -5.78038 -2.1275
RightFoot  -11.7729 -0.0548012 6.61635
RightToes  -2.08645e-008 3.77894e-005 6.81332e-007
Spine  33.6196 -5.111 22.1209
Spine1  -11.2966 3.89937 -29.9203
HEad  -49.0662 52.1707 -46.2758
LeftShoulder1  8.10367 -14.0316 -40.0073
LeftArm  14.7243 6.2483 -26.6529
LeftForeArm  172.255 -68.2087 -155.926
LeftHand  -0.474998 -2.51011 7.1872
RightShoulder  3.23878 6.94335 24.9126
RightArm  31.4102 19.2244 45.7527
RightForeArm  20.1107 41.6693 8.64728
RightHand  -1.54548 9.43738 -12.4163
LeftUpLeg  -47.9185 13.2103 23.4753
LeftLeg  96.4638 -0.79007 3.42327
LeftFoot  -9.23363 0.208327 -8.29357
LeftToes  1.24767e-006 1.47042e-008 1.32732e-009
362
root  20.0412 40.3578 38.0507 -146.138 -1.37427 140.802
RightUpLeg  -48.5259 -40.6074 -13.7086
RightLeg  15.9199 -8.41408 -2.43829
RightFoot  -12.3853 -0.0186273 7.18419
RightToes  -2.08645e-008 3.77894e-005 6.81332e-007
Spine  30.9303 -4.65211 21.3299
Spine1  -12.3259 3.3843 -30.6291
HEad  -48.4726 52.8539 -46.0148
LeftShoulder1  7.91441 -13.8813 -39.353
LeftArm  15.2195 8.17768 -26.9298
LeftForeArm  174.978 -67.5516 -156.985
LeftHand  -0.344253 -3.55327 4.72561
RightShoulder  3.23927 7.01983 24.6802
RightArm  35.5953 19.874 41.5223
RightForeArm  18.9649 37.8941 7.55406
RightHand  -1.33247 10.7235 -9.95889
LeftUpLeg  -43.5552 19.1313 29.8344
LeftLeg  100.173 -1.37974 5.07901
LeftFoot  -7.96949 0.274885 -7.71267
LeftToes  1.24767e-006 1.47042e-008 1.32732e-009
363
root  20.6431 40.5006 37.8252 -140.969 -6.24017 136.592
RightUpLeg  -48.8121 -44.279 -15.3861
RightLeg  14.9542 -11.8681 -2.78517
RightFoot  -11.922 -0.0422745 7.85152
RightToes  -2.08645e-008 3.77894e-005 6.81332e-007
Spine  28.5955 -4.25695 18.8099
Spine1  -13.3494 2.46339 -30.8661
HEad  -48.2241 53.6683 -45.5764
LeftShoulder1  7.47965 -13.5321 -37.8024
LeftArm  17.0659 8.45672 -27.3045
LeftForeArm  177.803 -67.0837 -157.8
LeftHand  -0.163421 -4.21564 2.24548
RightShoulder  3.21326 6.97347 24.5624
RightArm  34.6352 16.732 35.2127
RightForeArm  20.6132 36.288 6.99489
RightHand  -1.20426 10.098 -9.39123
LeftUpLeg  -38.0693 20.5492 36.1287
LeftLeg  99.989 -2.14113 8.76646
LeftFoot  -7.8002 0.221323 -5.68276
LeftToes  1.24767e-006 1.47042e-008 1.32732e-009
364
root  21.2249 40.6722 37.3277 -135.447 -11.2559 131.594
RightUpLeg  -45.9008 -46.7828 -19.9563
RightLeg  13.5723 -18.6224 -3.19763
RightFoot  -10.6911 -0.102927 5.21016
RightToes  -2.08645e-008 3.77894e-005 6.81332e-007
Spine  26.6182 -4.05388 16.4059
Spine1  -14.6066 1.5041 -32.3669
HEad  -47.7715 54.7682 -45.3155
LeftShoulder1  6.84458 -12.9405 -35.5938
LeftArm  20.6495 7.15119 -27.2119
LeftForeArm  178.06 -66.2014 -158.703
LeftHand  -0.0617811 -3.69449 1.04837
RightShoulder  3.17013 6.8167 24.6142
RightArm  27.2383 6.69531 28.0441
RightForeArm  22.2954 36.6532 6.99336
RightHand  -1.30523 8.91841 -10.9176
LeftUpLeg  -32.8692 19.2049 42.2144
LeftLeg  95.5328 -2.06642 13.3131
LeftFoot  -6.27448 0.0919195 -1.36688
LeftToes  1.24767e-006 1.47042e-008 1.32732e-009
365
root  21.5136 40.9533 36.7774 -128.437 -16.8097 126.445
RightUpLeg  -39.2909 -45.2005 -28.1859
RightLeg  11.9506 -29.4642 -4.05862
RightFoot  -7.25325 -0.0182138 -0.540881
RightToes  -2.08645e-008 3.77894e-005 6.81332e-007
Spine  24.1161 -4.1243 14.7291
Spine1  -16.8015 0.150531 -33.2044
HEad  -46.1907 55.5439 -44.7161
LeftShoulder1  5.95827 -11.9855 -32.4716
LeftArm  24.3236 6.1146 -28.1593
LeftForeArm  176.876 -65.7034 -159.052
LeftHand  0.0927419 -3.50603 -0.968818
RightShoulder  3.23668 6.7137 25.6223
RightArm  18.7988 -9.88585 20.2974
RightForeArm  24.9816 38.8123 7.4466
RightHand  -1.56836 7.94556 -13.9275
LeftUpLeg  -29.6295 18.3645 47.4217
LeftLeg  87.6676 -0.185804 16.8196
LeftFoot  -4.74608 -0.0714487 1.74988
LeftToes  1.24767e-006 1.47042e-008 1.32732e-009
366
root  21.7526 41.4404 36.0748 -119.979 -22.5981 119.714
RightUpLeg  -30.3924 -41.3674 -36.7698
RightLeg  9.70979 -43.4139 -5.1802
RightFoot  -2.74343 0.152756 -2.27814
RightToes  -2.08645e-008 3.77894e-005 6.81332e-007
Spine  20.6726 -4.8189 11.2689
Spine1  -17.8524 -1.91399 -30.6605
HEad  -44.6946 55.6133 -43.8306
LeftShoulder1  4.86789 -10.7381 -28.1242
LeftArm  26.3848 6.27984 -30.7981
LeftForeArm  176.421 -66.349 -158.385
LeftHand  0.331084 -4.06813 -3.79418
RightShoulder  3.33283 6.54973 27.1585
RightArm  16.5926 -28.2008 12.8739
RightForeArm  27.4215 40.5286 7.80289
RightHand  -1.68971 6.69514 -16.4444
LeftUpLeg  -27.371 15.7471 50.4464
LeftLeg  71.4481 5.72839 19.3728
LeftFoot  -2.208 -0.186232 2.49774
LeftToes  1.24767e-006 1.47042e-008 1.32732e-009
